{"glyphs":{":":{"x_min":0,"x_max":217,"ha":217,"o":"m 125 145 q 127 146 130 146 q 134 146 135 146 q 162 146 183 123 q 204 100 204 71 q 204 44 189 24 q 175 4 149 0 q 145 -1 139 -1 q 112 -1 92 18 q 72 38 72 65 q 71 71 71 74 q 71 100 86 121 q 100 142 125 145 z m 69 378 q 72 379 74 379 q 78 379 79 379 q 107 379 127 356 q 148 333 148 304 q 148 277 134 257 q 119 237 93 233 q 90 232 83 232 q 57 232 36 252 q 16 271 16 299 q 15 304 15 308 q 15 334 30 354 q 45 375 69 378 z"},"$":{"x_min":0,"x_max":547,"ha":547,"o":"m 361 519 q 354 522 350 524 q 319 535 304 539 q 289 542 270 543 q 250 543 241 544 q 248 551 248 564 q 248 593 226 618 q 200 648 160 648 l 211 439 q 326 439 402 401 q 522 341 522 196 q 522 106 450 50 q 389 3 318 3 l 330 -43 q 332 -53 333 -60 q 335 -67 335 -70 q 335 -78 329 -78 q 324 -78 318 -64 q 313 -50 310 -42 l 299 4 q 253 4 182 14 q 111 25 48 35 q 54 53 56 63 q 63 95 63 115 q 63 149 48 202 q 43 219 31 248 q 90 234 124 228 q 184 217 245 217 l 196 413 q 139 427 83 442 q 20 472 20 542 q 20 590 50 622 q 77 649 135 668 l 128 701 q 126 708 126 710 q 124 717 124 718 q 124 723 129 725 q 137 726 140 717 q 143 708 145 700 l 152 668 q 228 668 291 635 q 363 596 363 538 q 363 532 361 519 z m 188 439 l 141 647 q 98 647 66 618 q 34 590 34 543 q 34 491 83 463 q 126 439 188 439 z m 265 220 q 327 220 356 241 q 385 262 385 298 q 385 354 324 385 q 275 409 219 409 z"},"?":{"x_min":0,"x_max":361,"ha":361,"o":"m 333 529 q 333 495 304 447 q 271 394 238 342 q 229 326 225 302 q 221 279 221 255 q 221 229 223 207 q 223 204 225 197 q 212 197 208 215 q 204 233 204 262 q 204 293 253 414 q 276 473 276 516 q 276 574 252 611 q 221 659 154 659 q 91 659 57 613 q 30 578 30 536 q 30 494 57 463 q 83 432 106 432 q 121 432 130 442 q 140 451 140 466 q 140 481 132 494 q 125 507 106 520 q 130 533 142 541 q 179 568 182 596 q 208 589 222 565 q 235 542 235 516 q 235 471 211 442 q 184 410 135 410 q 89 410 55 442 q 18 477 18 534 q 18 584 40 618 q 78 674 169 674 q 233 674 275 647 q 333 609 333 529 z m 260 148 q 290 148 311 127 q 332 106 332 76 q 332 47 318 23 q 304 0 281 0 q 247 0 224 18 q 202 37 202 67 q 201 73 201 75 q 201 104 217 126 q 234 148 260 148 z"},"'":{"x_min":0,"x_max":196,"ha":196,"o":"m 83 771 q 122 771 143 733 q 163 694 163 640 q 163 604 150 569 q 137 534 131 535 q 131 542 131 551 q 131 561 132 575 q 132 595 128 609 q 124 622 114 622 q 98 622 86 626 q 35 641 35 704 q 35 731 48 751 q 60 771 83 771 z"},"a":{"x_min":0,"x_max":440,"ha":440,"o":"m 253 332 q 253 303 229 282 q 205 261 173 261 q 172 270 171 280 q 170 290 167 303 q 164 317 156 332 q 155 335 151 340 q 173 344 181 348 q 195 354 195 366 q 195 378 180 388 q 166 397 147 397 q 107 397 79 363 q 52 329 52 287 q 52 230 90 182 q 131 130 193 130 q 209 130 228 136 q 247 142 274 157 q 278 135 281 124 q 289 86 298 65 l 318 29 q 295 16 268 8 q 241 0 209 0 q 119 0 65 74 q 18 140 18 226 q 18 310 59 362 q 100 413 162 413 q 194 413 221 394 q 253 370 253 332 z m 284 404 q 294 404 299 362 q 314 230 316 223 q 329 178 353 161 q 370 148 395 148 q 400 148 407 149 q 414 150 415 150 q 413 143 413 138 q 409 109 409 90 q 410 83 410 79 q 412 62 422 31 q 425 22 432 5 q 399 5 378 17 q 350 31 324 73 q 311 93 304 164 q 293 274 291 288 q 281 357 258 377 q 264 386 266 390 q 276 404 284 404 z"},"L":{"x_min":0,"x_max":734,"ha":734,"o":"m 435 612 q 436 599 436 587 q 436 552 430 528 q 420 491 393 458 q 411 427 429 396 q 464 333 464 281 q 464 268 463 262 q 472 251 490 247 q 509 242 531 242 q 561 242 584 247 q 608 251 625 255 q 625 200 652 140 q 669 101 710 37 q 687 22 657 15 q 627 8 597 8 q 549 8 502 23 q 455 38 415 64 q 371 33 325 17 q 279 0 228 0 q 196 0 164 8 q 132 16 107 46 q 82 75 82 100 q 82 172 111 210 q 126 230 183 266 q 236 291 285 291 q 322 291 370 279 q 375 278 429 262 q 431 269 431 275 q 431 290 418 311 q 411 323 396 343 q 381 362 358 387 q 351 396 337 409 q 313 394 273 383 q 233 371 193 371 q 157 371 128 380 q 100 388 76 409 q 48 430 34 461 q 19 491 19 526 q 19 552 27 578 q 48 606 56 613 q 76 634 98 634 q 92 623 90 610 q 87 597 87 589 q 87 566 99 547 q 102 541 111 532 q 91 511 91 485 q 91 452 117 422 q 143 393 175 387 q 181 387 189 386 q 197 385 209 385 q 254 385 280 395 q 307 405 321 423 q 283 480 269 525 q 255 570 255 620 q 255 685 291 727 q 320 761 350 761 q 382 761 409 716 q 435 671 435 612 z m 293 711 q 288 688 288 666 q 288 614 316 562 q 338 521 382 473 q 402 498 411 533 q 420 568 420 608 q 420 627 419 638 q 418 648 415 669 q 410 701 388 726 q 367 750 342 750 q 326 750 315 741 q 303 732 293 711 z m 181 156 q 158 156 129 132 q 100 108 100 87 q 100 45 149 23 q 182 8 214 8 q 260 8 328 29 q 396 49 396 72 q 396 83 279 130 q 213 156 181 156 z"},"3":{"x_min":0,"x_max":491,"ha":491,"o":"m 377 473 q 377 423 319 386 q 300 374 262 358 q 282 358 313 350 q 373 335 409 301 q 460 255 460 176 q 460 90 392 40 q 336 0 265 0 q 193 0 123 32 q 81 52 32 89 q 46 99 54 106 q 79 129 93 155 q 100 168 103 185 q 106 203 106 222 q 106 239 105 246 q 138 211 177 191 q 216 170 259 170 q 285 170 312 178 q 335 195 348 209 q 366 229 369 250 q 372 284 347 310 q 315 343 250 343 q 226 343 204 336 q 183 329 164 323 l 159 344 q 189 349 210 354 q 283 374 283 448 q 283 501 260 534 q 236 566 190 566 q 144 566 109 546 q 63 520 63 471 q 63 455 76 435 q 90 416 107 416 q 129 416 129 441 q 129 453 120 465 l 159 485 q 170 491 186 504 q 188 506 193 510 q 198 510 204 497 q 211 483 211 471 q 211 446 193 422 q 169 389 128 389 q 90 389 67 420 q 48 445 48 474 q 48 512 85 542 q 133 580 219 580 q 309 580 350 537 q 377 509 377 473 z"},";":{"x_min":0,"x_max":214,"ha":214,"o":"m 123 140 q 161 140 181 102 q 201 64 201 9 q 201 -29 190 -63 q 178 -98 172 -97 q 173 -93 173 -91 q 177 -71 177 -57 q 177 -38 170 -23 q 163 -9 153 -9 q 137 -9 126 -5 q 74 10 74 73 q 74 100 87 120 q 100 140 123 140 z m 72 375 q 74 376 77 376 q 81 376 82 376 q 109 376 130 352 q 151 329 151 300 q 151 274 136 253 q 122 233 96 230 q 92 229 86 229 q 59 229 39 248 q 19 267 19 295 q 18 300 18 304 q 18 330 33 351 q 48 371 72 375 z"},"J":{"x_min":0,"x_max":421,"ha":421,"o":"m 182 672 q 182 646 168 617 q 151 587 134 559 q 134 539 146 491 q 158 444 175 406 q 196 366 223 325 q 233 309 300 223 q 326 223 348 260 q 369 297 369 335 q 369 397 326 439 q 290 474 256 474 q 243 474 243 481 q 243 486 257 486 q 298 486 335 448 q 380 402 380 333 q 380 283 347 239 q 336 225 314 206 q 330 178 347 148 q 364 118 373 91 q 382 63 388 30 q 394 -2 394 -35 q 394 -74 385 -104 q 376 -135 355 -158 q 319 -204 248 -222 q 184 -234 120 -248 q 121 -234 122 -212 q 123 -189 123 -187 q 123 -143 91 -76 q 82 -54 59 -17 q 161 -17 208 38 q 245 81 245 156 q 245 167 245 172 q 244 178 244 181 q 219 181 187 188 q 122 203 81 239 q 22 291 22 379 q 22 436 51 488 q 83 529 114 571 l 115 624 q 115 672 128 700 q 141 727 158 727 q 182 727 182 672 z m 162 633 q 170 659 170 681 q 170 710 157 710 q 142 710 135 683 q 127 657 127 624 q 127 587 132 587 q 140 595 143 600 q 158 618 162 633 z m 167 390 q 148 430 135 472 q 123 513 117 552 q 83 504 70 453 q 63 423 63 382 q 63 293 120 239 q 168 195 220 195 q 236 195 236 213 q 236 233 213 285 q 190 337 167 390 z"},"V":{"x_min":0,"x_max":628,"ha":628,"o":"m 105 716 q 105 694 117 678 q 151 631 155 607 q 176 502 202 434 q 239 337 290 287 q 352 226 438 226 q 498 226 531 259 q 564 292 564 346 q 564 424 506 518 q 448 612 342 711 q 361 711 371 711 q 396 711 417 713 q 438 715 457 720 q 470 687 524 626 q 542 606 577 570 q 563 568 526 568 q 515 565 503 563 q 543 493 572 409 q 613 296 613 215 q 613 145 577 87 q 523 0 413 0 q 309 0 243 72 q 190 130 165 231 q 146 309 146 396 q 146 436 147 467 q 148 498 149 527 q 149 592 131 628 q 113 665 63 682 q 13 699 13 717 l 65 716 z"},"7":{"x_min":0,"x_max":463,"ha":463,"o":"m 74 421 l 54 480 q 47 496 30 521 q 14 545 13 552 q 39 562 56 567 q 104 582 135 582 q 166 582 213 571 q 261 561 292 561 q 326 561 357 568 q 371 571 394 579 q 401 581 408 559 q 415 536 415 512 q 415 422 358 354 q 300 287 300 253 q 300 222 322 203 q 341 187 365 187 q 383 188 394 189 q 405 189 414 192 q 414 183 412 170 q 396 108 396 87 q 398 65 407 36 q 410 26 417 8 q 398 0 358 0 q 287 0 247 24 q 195 55 195 122 q 195 197 243 255 q 289 298 335 341 q 384 389 384 440 q 361 433 348 430 q 307 419 281 419 q 256 419 193 432 q 159 439 138 439 q 121 439 101 431 q 82 423 74 421 z"},"S":{"x_min":0,"x_max":657,"ha":657,"o":"m 413 539 q 397 552 387 560 q 355 585 339 593 q 323 601 295 611 q 286 613 271 619 q 271 667 240 686 q 217 700 171 700 q 117 700 77 665 q 38 630 38 580 q 38 522 84 497 q 120 478 186 478 q 217 478 239 479 q 260 481 290 483 q 363 483 418 472 q 508 453 560 404 q 627 343 627 236 q 627 143 553 78 q 464 0 293 0 q 236 0 182 6 q 128 13 42 33 q 51 62 56 89 q 60 117 60 147 q 60 202 42 261 q 117 242 179 232 q 240 222 280 222 q 361 222 407 246 q 461 274 461 332 q 461 407 376 439 q 319 461 239 461 q 134 461 93 476 q 25 502 25 582 q 25 657 89 691 q 140 717 229 717 q 313 717 368 681 q 423 645 423 587 q 423 574 422 564 q 420 553 413 539 z"},"Z":{"x_min":0,"x_max":666,"ha":666,"o":"m 402 719 l 474 717 q 438 665 409 622 q 379 578 351 536 q 309 474 299 460 q 294 453 294 451 q 304 451 314 451 q 377 468 398 468 q 461 468 509 442 q 558 416 598 367 q 619 340 629 302 q 639 264 639 223 q 639 187 630 152 q 618 102 574 61 q 531 21 478 3 q 456 -5 429 -9 q 403 -13 379 -13 q 352 -13 260 -1 q 217 4 192 4 q 162 4 137 -2 q 137 70 126 129 q 114 187 84 240 q 168 203 279 203 q 327 203 370 211 q 413 219 449 237 q 475 250 494 279 q 513 309 513 340 q 513 382 492 409 q 462 449 394 449 q 341 449 303 430 q 269 406 259 399 q 256 400 255 400 q 250 403 252 407 l 370 655 q 365 657 361 661 q 300 636 265 636 q 234 636 198 652 q 117 689 109 689 q 86 689 68 677 q 50 665 50 642 q 50 616 70 603 q 91 590 135 590 q 133 581 132 577 q 128 559 128 552 q 128 533 131 507 q 131 502 133 493 q 83 493 52 524 q 21 554 21 602 q 21 625 31 648 q 66 720 169 720 q 214 720 246 704 q 313 669 329 669 q 348 669 369 685 q 390 701 402 719 z"},"x":{"x_min":0,"x_max":469,"ha":469,"o":"m 189 274 q 188 288 188 298 q 188 354 203 385 q 227 436 288 436 q 321 436 341 413 q 361 389 361 357 q 361 335 352 318 q 343 300 322 287 q 319 292 317 295 q 306 316 295 329 q 291 336 283 343 q 280 345 275 349 q 275 393 253 393 q 238 393 224 370 q 210 348 210 317 q 210 244 258 194 q 301 149 351 149 q 368 149 386 153 q 429 164 430 164 q 430 150 429 126 q 428 101 428 93 q 431 67 440 33 q 443 22 449 4 q 411 4 380 13 q 340 23 317 48 q 273 96 233 164 q 221 187 203 223 l 204 140 q 204 73 165 31 q 135 -1 108 -1 q 103 14 100 22 q 91 52 86 64 q 74 91 48 132 q 44 139 36 150 q 44 149 58 147 q 72 145 82 145 q 120 145 141 161 q 170 184 170 237 q 170 257 147 291 q 125 326 95 354 q 70 378 34 386 q 22 387 12 390 l 49 432 q 63 425 87 399 q 112 373 133 343 q 189 279 189 274 z"},")":{"x_min":0,"x_max":422,"ha":422,"o":"m 354 556 q 401 456 401 348 q 401 272 379 202 q 357 133 311 70 q 291 42 268 19 q 238 -13 213 -27 q 278 55 313 148 q 349 242 349 344 q 349 404 335 465 q 312 570 213 667 q 128 752 19 801 q 123 801 212 735 q 300 669 354 556 z"},"&":{"x_min":0,"x_max":660,"ha":660,"o":"m 337 576 q 337 553 324 533 q 306 506 275 506 l 268 536 q 263 552 248 575 q 244 582 234 596 q 246 602 246 617 q 246 630 234 639 q 222 649 200 649 q 160 649 139 614 q 123 587 123 556 q 123 496 208 435 q 249 405 291 376 q 310 361 327 343 q 337 331 367 292 q 367 299 367 303 q 366 311 366 319 q 366 388 377 431 q 395 502 437 502 q 438 488 439 470 q 439 453 442 436 q 445 419 454 396 q 457 388 463 375 q 418 375 400 345 q 387 323 387 283 q 387 259 423 223 q 465 183 508 183 q 531 183 558 195 q 567 198 580 206 q 580 157 592 114 q 604 72 630 31 q 619 14 599 7 q 579 -1 552 -1 q 535 -1 521 2 q 506 4 487 10 q 444 23 414 65 q 384 106 375 154 q 355 93 335 63 q 303 13 252 2 q 245 0 235 -1 q 226 -2 218 -2 q 185 -2 152 15 q 126 29 100 53 q 70 83 55 122 q 40 162 40 207 q 40 273 68 328 q 86 364 118 390 q 151 415 188 422 q 147 458 130 483 q 106 518 106 560 q 106 599 129 630 q 162 673 229 673 q 274 673 308 639 q 337 610 337 576 z m 206 407 q 177 407 155 387 q 133 367 133 331 q 133 280 184 226 q 236 171 286 171 q 317 171 336 185 q 355 199 355 223 q 355 260 303 331 q 247 407 206 407 z"},"v":{"x_min":0,"x_max":388,"ha":388,"o":"m 318 341 q 344 299 359 252 q 374 204 374 154 q 374 110 361 68 q 352 41 321 21 q 290 0 265 0 q 187 0 145 59 q 117 104 93 208 q 76 284 72 300 q 63 330 46 358 q 33 378 15 398 l 55 427 q 73 406 87 322 q 100 237 120 202 q 154 142 230 142 q 265 142 292 166 q 327 196 327 247 q 327 300 298 349 q 269 397 226 411 q 217 413 207 409 q 197 405 197 396 q 197 386 213 373 l 181 308 q 161 309 142 329 q 123 349 123 375 q 123 435 189 435 q 229 435 259 412 q 289 389 318 341 z"},"O":{"x_min":0,"x_max":726,"ha":726,"o":"m 202 733 q 172 718 134 669 q 91 614 91 537 q 91 476 117 413 q 151 332 213 285 q 291 226 405 226 q 502 226 552 285 q 593 335 593 412 q 593 553 509 643 q 435 723 337 723 q 257 723 217 686 q 186 657 186 622 q 186 576 219 553 q 241 538 265 538 q 286 538 303 546 q 319 553 330 558 q 330 540 330 519 q 331 499 336 481 q 342 464 355 441 q 360 434 369 421 q 345 409 299 409 q 215 409 173 475 q 143 522 143 570 q 143 630 184 677 q 237 738 335 738 q 413 738 491 689 q 581 632 635 534 q 698 418 698 265 q 698 167 635 92 q 557 0 413 0 q 236 0 125 144 q 28 270 28 423 q 28 551 91 647 q 147 733 202 733 z"},"(":{"x_min":0,"x_max":441,"ha":441,"o":"m 135 654 q 107 605 92 548 q 78 491 78 436 q 78 361 100 288 q 123 216 166 154 q 226 87 288 39 q 350 -8 422 -40 q 311 -40 216 38 q 138 101 70 218 q 30 308 30 411 q 30 494 59 574 q 87 654 140 718 q 169 748 183 762 q 209 788 230 798 q 216 779 197 755 q 178 730 135 654 z"},"C":{"x_min":0,"x_max":726,"ha":726,"o":"m 552 535 q 552 469 499 418 q 447 368 385 368 q 327 368 277 393 q 201 430 201 507 q 201 572 241 611 q 275 643 318 643 q 316 633 315 628 q 310 607 310 598 q 310 580 325 554 q 329 546 340 531 q 314 531 298 509 q 282 486 282 457 q 282 447 284 437 q 293 407 316 393 q 339 378 370 378 q 391 378 412 387 q 448 404 468 450 q 485 490 485 533 q 485 578 465 618 q 439 673 386 693 q 351 707 310 707 q 270 707 232 694 q 194 682 168 657 q 129 620 107 575 q 85 531 85 483 q 85 415 121 358 q 154 305 216 262 q 288 228 388 228 q 454 228 515 242 q 576 257 621 283 q 623 257 625 241 q 631 194 642 163 q 652 133 687 81 q 692 72 703 58 q 664 30 597 15 q 531 0 452 0 q 374 0 286 32 q 176 73 111 146 q 30 238 30 369 q 30 516 98 610 q 175 718 321 718 q 417 718 484 663 q 552 607 552 535 z"},"W":{"x_min":0,"x_max":996,"ha":996,"o":"m 189 614 q 196 593 219 500 q 254 353 297 300 q 321 266 353 249 q 386 231 427 226 q 460 226 489 250 q 525 280 525 329 q 525 408 476 533 q 424 668 363 717 l 425 717 q 449 665 477 585 q 504 505 520 465 q 552 389 598 308 q 622 266 676 244 q 722 225 773 225 q 805 225 823 233 q 855 248 868 270 q 882 293 882 322 q 882 337 879 350 q 876 362 871 378 q 855 436 821 495 q 787 553 743 610 q 717 644 653 717 q 674 716 688 715 q 702 715 718 714 q 734 714 750 716 q 767 717 781 719 q 781 686 805 652 q 842 603 880 553 q 864 562 842 562 q 822 562 804 553 q 857 460 909 368 q 963 257 963 168 q 963 134 956 101 q 949 68 916 37 q 883 6 848 1 q 787 1 756 8 q 708 19 679 51 q 648 75 630 111 q 604 169 578 226 q 560 126 548 96 q 519 24 459 4 q 435 -1 413 -1 q 358 -1 314 28 q 270 57 241 110 q 213 163 205 299 q 195 512 194 519 q 180 633 132 658 q 96 674 61 691 q 43 701 43 717 l 135 717 q 135 701 141 692 q 150 674 175 639 q 187 622 189 614 z"},"A":{"x_min":0,"x_max":764,"ha":764,"o":"m 501 714 l 505 680 q 507 667 511 653 q 512 650 515 645 q 511 644 502 644 q 482 644 448 652 q 437 655 418 660 q 422 651 447 530 q 471 408 507 344 q 561 249 654 239 l 693 239 q 686 198 686 160 q 686 114 696 74 q 707 34 731 4 q 716 1 703 1 q 653 1 604 38 q 571 63 528 117 q 488 185 464 331 q 447 445 430 559 q 408 671 368 688 q 314 710 274 710 q 246 710 213 697 q 160 674 124 610 q 91 552 91 500 q 91 415 115 360 q 143 294 209 252 q 229 239 252 234 q 274 228 302 228 q 335 228 362 234 q 388 239 430 252 q 434 235 439 218 q 448 174 458 140 q 473 108 506 54 q 511 45 521 30 q 499 30 464 21 q 383 0 360 0 q 257 0 196 32 q 135 64 88 142 q 23 247 23 370 q 23 449 53 524 q 78 588 122 639 q 172 696 230 714 q 263 723 294 723 q 325 723 375 713 q 425 703 443 703 q 448 702 457 702 q 472 702 482 706 q 492 710 501 714 z"},"f":{"x_min":0,"x_max":325,"ha":325,"o":"m 125 723 q 146 723 164 711 q 190 694 190 661 q 190 642 185 630 q 177 610 157 599 q 154 606 152 610 q 146 622 141 629 q 135 636 118 648 q 116 649 109 653 q 115 661 117 670 q 119 678 119 685 q 119 708 96 708 q 74 708 59 681 q 45 655 45 616 q 45 543 74 472 q 101 414 117 378 q 120 373 125 373 q 133 373 163 403 q 178 417 192 428 q 198 433 209 422 q 219 410 232 410 q 245 410 268 419 q 271 418 274 417 q 274 402 247 378 q 219 355 205 353 q 191 352 187 352 q 177 352 165 356 q 152 360 151 360 q 144 360 139 355 q 136 352 136 347 q 189 268 228 188 q 271 100 271 20 q 271 -46 231 -110 q 198 -164 157 -191 q 152 -172 150 -161 q 141 -130 131 -111 q 122 -91 99 -65 q 91 -56 76 -40 q 131 -22 155 20 q 176 56 176 117 q 176 150 161 211 q 142 286 112 328 q 103 328 65 301 q 50 291 47 297 q 41 305 57 316 q 100 344 100 355 q 71 424 50 482 q 27 544 27 603 q 27 655 43 683 q 66 723 125 723 z"},"Q":{"x_min":0,"x_max":755,"ha":755,"o":"m 707 284 q 707 235 678 151 q 676 143 676 133 q 676 109 683 87 q 689 64 701 51 q 705 46 712 41 q 718 37 731 32 q 736 30 736 27 q 736 22 723 15 q 709 9 698 9 q 679 9 657 28 q 616 64 614 63 q 566 28 522 14 q 479 0 417 0 q 336 0 258 35 q 160 80 100 168 q 29 275 29 435 q 29 562 95 657 q 150 735 192 735 q 186 727 179 719 q 87 658 87 540 q 87 406 185 314 q 278 225 400 225 q 417 225 454 231 q 474 239 493 247 q 487 256 472 263 q 457 271 425 282 q 439 290 454 299 q 474 313 483 332 q 497 348 501 378 q 501 382 503 391 q 516 387 545 357 q 574 327 576 327 q 586 327 592 357 q 598 386 598 421 q 598 553 520 641 q 442 729 332 729 q 265 729 228 702 q 184 671 184 623 q 184 588 204 564 q 223 539 261 539 q 284 539 303 548 q 322 558 333 563 q 332 558 332 555 q 329 531 329 517 q 329 492 335 478 q 340 464 355 445 q 360 439 369 429 q 361 422 343 417 q 325 413 298 413 q 216 413 175 472 q 143 517 143 577 q 143 657 210 706 q 266 746 333 746 q 387 746 451 717 q 515 689 570 635 q 635 570 667 494 q 707 404 707 284 z"},"w":{"x_min":0,"x_max":620,"ha":620,"o":"m 601 156 q 601 87 573 43 q 545 -1 502 -1 q 447 -1 401 51 q 367 109 333 169 q 333 104 316 63 q 290 0 230 0 q 149 0 116 72 q 100 104 78 229 q 65 301 48 340 q 32 379 13 396 q 9 400 25 414 q 30 419 43 429 q 63 404 74 351 q 80 313 86 276 q 103 207 148 167 q 187 133 225 133 q 257 128 282 154 q 307 180 307 221 q 307 284 280 336 q 263 370 239 389 l 272 427 q 296 403 306 343 q 309 317 314 291 q 331 218 367 178 q 404 138 460 138 q 509 138 539 175 q 564 206 564 243 q 564 303 517 362 q 475 415 449 415 q 441 415 431 410 q 422 405 422 398 q 422 387 444 375 l 413 300 q 383 306 366 332 q 352 352 352 373 q 352 404 373 420 q 393 437 425 437 q 490 437 543 358 q 601 274 601 156 z"},"-":{"x_min":0,"x_max":296,"ha":296,"o":"m 245 319 l 268 255 q 254 248 235 245 q 216 242 192 242 q 177 242 148 245 q 119 248 104 248 q 80 248 68 245 q 57 243 40 237 l 17 300 q 52 317 113 317 q 136 317 156 316 q 175 314 202 312 q 227 312 245 319 z"},"E":{"x_min":0,"x_max":687,"ha":687,"o":"m 437 619 q 437 578 404 549 q 370 519 330 519 q 289 519 252 545 q 212 574 212 613 q 212 633 219 649 q 226 665 239 677 q 246 668 249 663 q 262 647 272 639 q 276 636 297 625 q 302 622 312 617 q 304 613 299 604 q 294 596 294 580 q 293 566 305 550 q 317 535 329 535 q 356 535 375 553 q 395 571 395 604 q 395 653 361 687 q 323 726 256 726 q 173 726 135 676 q 108 640 108 592 q 108 553 121 517 q 140 467 179 447 q 196 452 207 455 q 243 464 270 464 q 309 464 328 458 q 348 452 348 430 q 348 411 321 402 q 303 396 280 396 q 243 396 226 399 q 200 407 170 414 q 165 415 152 396 q 144 384 141 376 q 139 361 139 355 q 139 317 168 285 q 192 258 232 241 q 273 224 319 224 q 382 224 443 257 q 498 285 533 329 l 576 237 q 598 201 626 162 q 636 149 652 127 q 593 73 513 38 q 422 -2 336 -2 q 245 -2 172 32 q 92 69 49 143 q 29 178 29 223 q 29 258 41 297 q 54 336 74 370 q 83 384 102 401 q 126 421 135 429 q 90 474 74 498 q 55 529 55 566 q 55 646 123 696 q 185 742 265 742 q 332 742 384 704 q 437 665 437 619 z m 328 431 q 328 443 313 447 q 297 451 269 451 q 252 451 228 444 q 204 437 204 429 q 204 422 235 413 q 256 408 274 408 q 300 408 314 413 q 328 417 328 431 z"},"s":{"x_min":0,"x_max":398,"ha":398,"o":"m 259 361 q 259 335 240 321 q 222 307 196 307 q 196 314 196 322 q 195 330 187 340 q 180 351 168 361 q 166 361 161 365 q 167 375 167 382 q 167 397 149 407 q 132 417 112 417 q 73 417 51 389 q 35 369 35 343 q 35 302 68 285 q 94 272 139 272 q 160 272 178 273 q 196 274 211 276 q 284 276 332 233 q 376 193 376 126 q 376 58 311 23 q 265 -2 213 -2 q 196 -2 177 2 q 125 12 70 12 q 70 27 70 42 q 69 57 66 80 q 64 104 49 146 q 48 153 42 166 q 68 162 101 150 q 126 141 167 141 q 207 141 228 151 q 255 163 255 194 q 255 243 137 255 q 19 266 19 341 q 19 387 57 413 q 90 435 147 435 q 191 435 225 414 q 259 393 259 361 z"},"l":{"x_min":0,"x_max":332,"ha":332,"o":"m 72 710 q 72 658 111 498 q 156 316 204 188 q 266 25 317 0 q 294 2 267 4 q 240 5 215 5 q 193 5 169 4 q 144 2 123 0 q 135 12 146 58 q 156 104 156 147 q 156 191 137 304 q 115 438 84 535 q 47 655 6 667 z"},"8":{"x_min":0,"x_max":536,"ha":536,"o":"m 397 469 q 397 443 378 416 q 363 396 343 380 q 405 367 456 326 q 520 273 520 204 q 520 131 476 77 q 413 0 277 0 q 169 0 97 39 q 25 77 25 145 q 25 187 30 207 q 39 241 65 258 q 69 253 72 249 q 87 229 100 220 q 118 205 158 200 q 170 198 195 197 q 177 162 174 157 q 162 132 162 119 q 162 58 211 29 q 248 6 299 6 q 368 22 383 30 q 431 54 431 109 q 431 190 324 223 q 223 248 123 274 q 14 317 14 420 q 14 496 87 543 q 147 583 213 583 q 277 583 330 558 q 397 526 397 469 z m 193 572 q 164 572 135 550 q 105 528 105 499 q 105 475 117 454 q 129 433 150 422 q 227 384 309 384 q 334 381 359 409 q 385 438 385 465 q 385 509 335 539 q 281 572 193 572 z"},"e":{"x_min":0,"x_max":412,"ha":412,"o":"m 332 310 q 279 310 246 295 q 204 276 182 231 q 176 211 173 201 q 167 182 157 182 q 149 182 139 191 q 128 196 128 206 q 128 215 133 224 q 137 232 146 243 q 154 253 196 278 q 227 298 227 315 q 227 326 215 341 q 189 374 184 378 q 164 396 136 396 q 112 396 91 379 q 74 366 57 341 q 46 320 46 293 q 46 272 52 252 q 58 231 70 213 q 103 178 149 157 q 196 137 244 137 q 298 137 348 161 q 348 144 349 123 q 351 102 361 75 q 365 58 384 34 q 389 26 401 13 q 331 5 311 3 q 291 1 260 1 q 178 1 105 64 q 18 139 18 259 q 18 342 70 384 q 109 415 160 415 q 232 415 289 364 q 332 326 332 310 z"},"b":{"x_min":0,"x_max":467,"ha":467,"o":"m 60 677 q 80 650 97 491 q 114 333 144 259 q 195 139 304 139 q 346 139 374 159 q 410 184 410 238 q 410 299 364 354 q 317 409 272 409 q 251 409 237 401 q 223 393 223 373 q 223 363 232 360 q 240 356 247 354 q 247 350 247 347 q 246 338 246 329 q 246 317 247 311 q 248 304 254 290 q 256 285 260 276 q 248 266 222 266 q 191 266 171 282 q 147 300 147 337 q 147 373 177 399 q 206 425 255 425 q 336 425 393 338 q 444 259 444 170 q 444 89 395 41 q 352 0 294 0 q 201 0 157 92 q 128 153 109 303 q 88 474 73 529 q 65 567 50 597 q 34 627 14 647 z"},"m":{"x_min":0,"x_max":765,"ha":765,"o":"m 488 1 q 469 2 445 2 q 422 3 395 3 q 364 3 343 2 q 321 1 302 0 q 335 69 335 155 q 335 219 318 278 q 301 336 269 383 q 252 403 235 411 q 218 419 196 419 q 177 419 162 407 q 147 395 147 378 q 147 352 162 344 q 177 337 219 337 l 245 272 q 240 265 230 261 q 219 257 199 257 q 165 257 138 278 q 108 302 108 339 q 108 378 133 405 q 159 431 196 431 q 244 431 286 383 q 328 334 363 239 q 391 163 428 102 q 488 2 488 1 z m 237 0 l 152 3 l 66 0 q 84 38 95 83 q 105 127 105 176 q 105 236 87 290 q 69 344 27 393 l 83 420 q 83 317 144 177 q 174 110 237 0 z m 439 424 q 421 424 405 413 q 390 401 390 384 q 390 358 409 350 q 422 344 456 344 l 477 272 q 470 259 439 259 q 405 259 377 283 q 349 306 349 343 q 349 382 377 409 q 405 437 442 437 q 482 437 521 398 q 560 359 578 295 q 605 204 638 179 q 671 154 725 154 q 725 144 725 138 q 725 109 726 91 q 727 73 734 54 q 737 42 750 17 q 752 13 755 6 q 752 4 743 1 q 734 -2 725 -2 q 609 -2 579 161 q 565 238 552 315 q 536 365 506 395 q 476 424 439 424 z"},",":{"x_min":0,"x_max":196,"ha":196,"o":"m 71 140 q 109 140 129 102 q 149 64 149 9 q 149 -29 138 -63 q 126 -98 120 -97 q 121 -93 121 -91 q 125 -71 125 -57 q 125 -38 118 -23 q 111 -9 101 -9 q 85 -9 74 -5 q 22 10 22 73 q 22 100 35 120 q 48 140 71 140 z"},"n":{"x_min":0,"x_max":509,"ha":509,"o":"m 314 295 q 341 225 370 196 q 406 161 465 161 q 465 158 465 156 q 465 148 465 143 q 465 127 465 108 q 466 88 469 73 q 472 57 482 30 q 484 22 491 6 q 479 0 465 0 q 437 0 406 20 q 376 39 359 65 q 342 91 295 283 q 261 422 182 422 q 160 422 143 411 q 126 400 126 382 q 126 368 135 355 q 144 343 161 343 q 175 343 190 352 l 217 275 q 199 265 176 265 q 150 265 128 277 q 106 290 96 307 q 93 312 91 324 q 89 336 89 347 q 89 383 107 404 q 130 432 184 432 q 248 432 283 368 q 290 356 314 295 z m 221 1 l 135 3 l 43 0 q 61 39 71 84 q 82 129 82 178 q 82 238 66 291 q 51 343 14 394 l 64 428 q 64 314 125 176 q 160 95 221 1 z"},"h":{"x_min":0,"x_max":550,"ha":550,"o":"m 68 652 q 68 586 96 465 q 128 326 175 210 q 231 70 297 0 q 275 2 249 3 q 223 4 199 4 q 164 4 140 3 q 117 2 104 0 q 116 40 121 74 q 126 107 126 160 q 126 300 89 452 q 52 603 3 684 l 74 711 q 74 705 71 689 q 68 673 68 652 z m 306 414 q 326 396 373 268 q 395 210 420 187 q 446 159 490 159 q 499 159 509 160 q 520 161 535 165 q 522 147 522 118 q 522 96 530 68 q 538 40 547 11 q 547 5 543 5 q 436 5 395 91 q 379 123 352 268 q 330 381 280 417 q 257 433 228 433 q 208 433 191 418 q 175 404 175 385 q 175 371 188 359 q 201 347 217 347 q 230 347 243 358 q 248 337 251 326 q 264 291 284 277 q 267 263 239 263 q 219 263 202 270 q 174 286 158 311 q 142 335 142 365 q 142 391 161 414 q 186 445 229 445 q 257 445 277 435 q 286 430 306 414 z"},"z":{"x_min":0,"x_max":433,"ha":433,"o":"m 293 435 q 273 387 252 341 q 247 329 228 291 q 226 287 234 284 q 242 282 257 282 q 268 282 279 283 q 304 288 306 288 l 287 259 l 214 259 q 213 255 181 196 q 160 154 164 140 q 176 144 188 146 q 201 148 214 148 q 229 148 265 144 q 302 141 314 141 q 330 141 344 143 q 359 144 382 153 l 416 11 q 405 11 373 7 q 300 -1 277 -1 q 252 -1 222 5 q 191 11 181 11 q 125 11 109 10 q 94 10 83 8 l 192 257 q 191 257 191 258 q 188 259 176 259 q 168 259 144 258 q 120 257 109 257 l 122 285 q 128 285 148 283 q 169 282 172 282 q 186 282 195 284 q 204 287 209 295 q 224 324 241 362 q 258 400 264 413 q 248 411 233 409 q 194 398 154 388 q 74 374 45 374 q 28 374 16 378 l 32 436 q 38 435 87 430 q 136 424 158 424 q 179 424 239 430 q 257 431 293 435 z"},"B":{"x_min":0,"x_max":745,"ha":745,"o":"m 525 608 q 530 595 535 576 q 539 557 539 538 q 539 520 534 501 q 529 482 519 463 q 543 449 557 442 q 601 417 618 401 q 668 353 696 300 q 723 246 723 184 q 723 149 712 109 q 697 84 683 59 q 663 32 625 16 q 587 0 541 0 q 509 0 474 9 q 491 32 499 47 q 525 91 533 120 q 538 138 540 167 q 542 196 542 217 q 542 227 542 230 q 542 231 542 235 q 556 233 562 233 q 592 233 607 252 q 622 271 622 302 q 622 359 576 407 q 535 449 507 449 q 500 444 497 441 q 485 432 472 426 q 459 421 439 417 q 418 414 419 411 q 447 343 475 276 q 478 263 480 248 q 482 233 482 219 q 482 170 467 130 q 452 89 422 60 q 395 28 350 13 q 314 2 263 2 q 239 2 199 6 q 160 10 141 12 q 144 22 146 35 q 148 49 148 65 q 148 115 129 184 q 123 207 109 244 q 140 234 163 229 q 187 223 206 223 q 238 223 273 240 q 309 257 334 296 q 360 336 360 387 q 360 414 338 506 q 316 597 316 633 q 316 659 323 659 q 327 659 327 639 q 327 623 327 615 q 327 580 346 532 q 365 484 394 452 q 404 470 445 470 q 483 473 488 498 q 488 573 443 633 q 389 706 296 706 q 251 706 210 695 q 170 684 131 659 q 83 630 54 585 q 24 540 24 486 q 24 417 65 369 q 102 324 149 324 q 180 324 197 349 q 214 375 214 406 q 214 418 212 429 q 204 455 177 479 q 150 504 115 518 q 127 526 134 531 q 153 545 165 557 q 176 570 192 598 q 195 603 199 612 q 241 582 265 539 q 289 496 289 446 q 289 396 258 356 q 221 308 154 308 q 93 308 53 360 q 13 412 13 486 q 13 600 112 665 q 194 717 298 717 q 376 717 441 685 q 507 652 525 608 z m 406 439 q 409 434 419 434 q 431 434 445 440 q 459 447 459 453 q 459 459 447 459 q 432 459 417 453 q 403 447 406 439 z"},"K":{"x_min":0,"x_max":792,"ha":792,"o":"m 540 735 q 542 717 543 696 q 543 675 546 655 l 553 605 q 547 605 534 606 q 521 607 515 607 q 494 607 472 597 q 418 578 382 497 q 368 463 353 430 q 361 416 374 401 q 387 386 393 378 q 436 322 485 288 q 546 246 609 246 q 627 246 647 249 q 666 253 685 261 q 688 251 691 241 q 701 168 704 159 q 713 126 742 74 q 752 57 770 26 q 741 17 722 13 q 704 9 681 9 q 592 9 530 75 q 488 120 448 215 q 398 332 392 342 q 366 386 355 397 q 343 409 331 409 q 322 409 322 396 q 340 335 353 280 q 367 226 367 181 q 367 143 352 105 q 343 78 330 61 q 306 28 268 13 q 237 0 193 0 q 171 0 139 4 q 108 9 92 11 q 92 79 58 164 q 40 207 22 250 q 43 247 70 243 q 96 239 119 239 q 144 239 163 243 q 182 247 198 257 q 235 274 256 312 q 276 350 276 389 q 263 392 249 395 q 222 401 222 419 q 222 434 239 445 q 251 451 264 458 q 264 472 255 496 q 242 530 239 541 q 230 566 220 604 q 217 617 212 639 q 209 596 205 573 q 195 501 173 473 q 151 445 126 430 q 100 415 71 415 q 74 429 76 445 q 78 461 78 476 l 75 514 q 109 514 137 538 q 165 561 179 598 q 189 621 204 684 q 213 727 225 727 q 224 707 226 681 q 228 655 239 607 q 245 579 254 552 q 257 543 289 463 q 291 459 306 450 q 321 441 334 441 q 349 441 364 501 q 379 561 396 626 q 410 675 457 707 q 500 735 540 735 z m 262 409 q 272 409 272 422 q 272 437 263 437 q 239 437 239 422 q 239 415 245 412 q 251 409 262 409 z"},"R":{"x_min":0,"x_max":773,"ha":773,"o":"m 535 492 q 535 454 516 417 q 498 381 476 367 q 535 299 572 271 q 633 226 699 226 q 700 205 701 192 q 707 152 717 118 q 722 92 739 55 q 757 18 759 10 q 732 4 708 4 q 665 4 632 25 q 599 45 568 93 q 537 191 510 257 q 483 323 448 351 q 443 347 440 346 q 433 343 426 340 l 401 332 q 422 286 434 253 q 459 189 459 152 q 459 47 393 15 q 361 0 273 0 q 229 0 195 4 q 161 8 154 8 q 152 8 122 4 q 110 2 96 2 q 99 28 99 51 q 99 99 87 152 q 79 191 60 247 q 101 227 143 220 q 170 215 202 215 q 277 215 316 247 q 354 278 354 335 q 341 342 335 346 q 314 361 314 374 q 314 387 328 396 q 330 398 336 400 q 323 433 314 471 q 305 509 305 531 q 305 575 313 611 q 321 647 332 647 q 331 632 330 618 q 318 576 318 550 q 318 520 326 488 q 335 456 361 402 q 371 400 385 398 q 398 396 410 392 q 422 389 431 386 q 439 382 448 378 q 457 375 472 406 q 487 437 487 473 q 487 552 424 625 q 352 710 248 710 q 179 710 115 663 q 30 600 30 488 q 30 428 65 377 q 100 326 153 326 q 183 326 202 344 q 221 363 221 388 q 221 416 189 448 q 158 481 130 486 q 131 491 169 549 q 183 571 183 590 q 229 580 253 533 q 269 502 279 443 q 279 390 259 358 q 230 309 162 309 q 96 309 57 357 q 14 410 14 486 q 14 599 97 668 q 167 726 251 726 q 360 726 447 654 q 535 582 535 492 z m 378 380 q 382 367 384 362 q 389 354 391 351 q 402 352 406 353 q 422 358 422 363 q 422 370 392 378 q 387 378 378 380 z m 347 359 l 342 379 q 335 373 335 370 q 335 365 343 361 q 343 360 347 359 z"},"T":{"x_min":0,"x_max":584,"ha":584,"o":"m 538 700 l 553 642 q 542 639 532 638 q 523 637 511 637 q 474 637 400 677 q 326 717 259 717 q 140 717 76 634 q 29 572 29 502 q 29 418 74 364 q 117 315 170 315 q 209 315 226 343 q 239 364 239 394 q 239 448 193 480 q 170 496 146 513 q 169 530 191 548 q 222 572 236 589 q 290 551 310 511 q 327 478 327 434 q 327 388 300 348 q 262 291 187 291 q 129 291 83 331 q 16 388 16 501 q 16 616 103 680 q 178 735 287 735 q 325 735 396 716 q 468 697 501 697 q 521 697 538 700 z m 535 181 q 535 93 458 44 q 389 0 291 0 l 133 0 q 135 13 136 28 q 138 43 138 57 q 138 107 108 186 q 98 212 77 255 q 113 238 151 227 q 188 217 214 217 q 277 217 326 248 q 398 296 398 398 q 398 438 383 488 q 348 604 348 610 q 348 630 350 643 q 352 657 362 657 q 364 650 365 640 q 366 630 366 613 q 366 581 410 495 q 491 338 491 335 q 535 239 535 181 z"},"P":{"x_min":0,"x_max":587,"ha":587,"o":"m 562 496 q 562 443 524 396 q 511 381 484 361 q 507 316 520 272 q 533 229 533 189 q 533 142 512 103 q 483 47 430 22 q 385 0 320 0 q 299 0 256 4 q 213 7 193 7 q 181 7 167 7 q 153 6 132 0 q 141 30 141 59 q 141 100 123 149 q 105 198 88 243 q 133 230 165 223 q 197 216 233 216 q 271 216 304 228 q 338 239 364 265 q 384 285 396 309 q 409 334 409 359 q 394 369 380 387 q 364 408 364 428 q 361 446 372 465 q 378 474 384 483 q 369 527 363 547 q 352 583 352 613 q 352 639 355 654 q 358 668 370 668 q 375 668 375 661 q 375 657 372 639 q 369 622 369 613 q 369 586 380 552 q 388 529 404 496 l 448 498 q 459 498 467 486 q 475 474 475 461 q 475 445 465 434 q 456 423 456 416 q 456 405 463 394 q 471 382 476 374 q 487 378 492 383 q 529 413 529 475 q 529 568 466 640 q 398 719 299 719 q 187 719 110 649 q 39 585 39 502 q 39 439 66 388 q 100 325 166 325 q 195 325 216 347 q 238 370 238 396 q 238 428 217 452 q 205 465 154 497 q 164 508 170 514 q 187 535 195 548 q 199 558 207 580 q 209 587 213 599 q 246 596 280 551 q 315 506 315 462 q 315 390 267 344 q 226 305 178 305 q 100 305 57 373 q 23 429 23 502 q 23 604 117 672 q 201 732 300 732 q 390 732 466 679 q 562 612 562 496 z m 378 428 q 380 410 388 398 q 396 386 406 386 q 404 408 402 419 q 396 452 392 452 q 385 452 380 444 q 376 437 378 428 z"},"t":{"x_min":0,"x_max":324,"ha":324,"o":"m 176 433 l 196 400 q 171 408 141 408 q 118 408 119 399 q 135 289 159 236 q 178 192 209 174 q 220 168 234 164 q 248 160 270 160 q 286 161 293 161 q 291 144 291 133 q 291 97 301 45 q 304 28 311 0 q 248 0 213 22 q 189 38 162 81 q 144 141 130 226 q 115 312 101 395 q 100 404 94 406 q 88 408 71 408 q 65 408 54 404 q 43 399 39 399 q 31 399 26 404 q 22 408 16 423 q 25 424 34 425 q 47 425 53 425 q 83 425 87 426 q 95 428 95 433 q 95 460 62 500 q 37 530 13 560 q 12 561 38 584 q 47 591 65 607 q 82 569 97 514 q 108 475 116 437 q 118 425 137 425 q 146 425 159 429 q 171 432 176 433 z"},"M":{"x_min":0,"x_max":1068,"ha":1068,"o":"m 336 747 q 336 728 336 719 q 336 685 341 657 q 345 628 359 595 q 373 561 402 518 q 489 387 494 378 q 539 296 572 206 q 604 116 615 40 q 619 57 621 74 q 622 91 622 117 q 622 211 592 311 q 562 394 534 476 q 502 570 502 639 q 502 667 502 695 q 504 723 510 749 q 526 747 556 745 q 587 743 593 743 q 616 743 636 745 q 657 746 683 748 q 703 748 703 741 q 703 736 663 732 q 622 727 622 721 q 622 651 636 587 q 657 483 709 410 q 778 314 893 274 q 923 265 954 265 q 974 265 988 266 q 1014 271 1029 273 q 1021 248 1017 233 q 1004 183 1004 145 q 1004 111 1019 71 q 1028 47 1047 9 q 951 9 874 71 q 813 120 757 217 q 729 265 674 382 q 641 463 625 548 q 608 632 608 721 q 608 725 580 728 q 552 731 526 731 q 524 720 521 702 q 518 683 518 651 q 518 583 550 485 q 578 398 609 302 q 640 205 640 124 q 640 73 627 38 q 614 4 607 4 q 597 52 590 81 q 568 167 542 212 q 522 246 496 283 q 435 370 427 382 q 375 465 349 545 q 320 633 320 723 q 320 728 311 728 q 307 728 293 726 q 280 725 274 725 q 240 720 239 720 q 237 720 231 718 q 231 655 235 626 q 239 597 258 546 q 269 517 305 442 q 338 371 352 333 q 372 273 372 223 q 372 182 360 147 q 348 112 317 77 q 284 39 230 19 q 177 -1 119 -1 q 72 -1 35 13 q 39 21 40 26 q 55 61 55 86 q 55 91 53 102 q 53 130 42 164 q 16 247 16 269 q 40 259 67 254 q 93 248 121 248 q 174 248 212 269 q 239 294 252 309 q 274 337 274 364 q 274 425 244 537 q 213 649 213 714 q 213 726 176 727 q 139 729 139 738 q 139 743 161 743 q 185 743 204 742 q 223 741 240 740 q 270 740 294 742 q 317 744 336 747 z"},"g":{"x_min":0,"x_max":431,"ha":431,"o":"m 265 430 l 303 411 q 291 393 284 379 q 271 352 271 319 q 271 265 309 194 q 345 133 383 67 q 422 2 422 -43 q 422 -108 358 -158 q 311 -195 275 -202 q 274 -186 273 -177 q 269 -152 262 -133 q 255 -114 240 -88 q 236 -79 226 -64 q 266 -64 299 -36 q 336 -3 336 53 q 336 83 314 139 q 291 196 270 248 q 246 313 246 349 q 246 395 265 430 z m 182 287 q 178 287 176 300 q 174 313 171 317 q 163 332 151 346 q 149 348 145 352 q 162 366 162 386 q 162 400 155 409 q 147 419 135 419 q 107 419 80 388 q 48 352 48 296 q 48 213 102 172 q 143 143 197 143 q 212 143 223 145 q 235 148 272 160 q 273 142 275 122 q 277 102 283 81 q 287 69 302 39 q 304 35 309 27 q 296 13 273 6 q 249 -2 222 -2 q 181 -2 150 13 q 89 34 55 95 q 22 156 22 228 q 22 308 42 356 q 76 437 161 437 q 193 437 215 412 q 238 387 238 352 q 238 339 222 316 q 204 287 182 287 z"},"j":{"x_min":0,"x_max":257,"ha":257,"o":"m 136 436 q 136 342 161 260 q 183 196 206 128 q 230 59 230 -17 q 230 -92 167 -139 q 116 -177 62 -177 q 46 -177 39 -173 q 39 -165 40 -161 q 47 -124 47 -111 q 47 -91 38 -57 q 35 -46 29 -27 q 46 -34 68 -34 q 115 -34 149 -1 q 184 31 184 86 q 184 145 153 232 q 120 326 70 397 z m 50 633 q 67 633 80 623 q 93 613 93 596 q 93 578 83 565 q 73 552 56 552 q 39 552 26 563 q 13 573 13 590 q 13 607 23 620 q 33 633 50 633 z"},"i":{"x_min":0,"x_max":281,"ha":281,"o":"m 266 -1 q 248 1 238 2 q 198 5 186 5 q 159 5 130 4 q 101 2 78 0 q 100 48 112 100 q 123 153 123 208 q 123 274 106 326 q 90 378 59 404 l 110 437 q 110 310 159 189 q 196 95 266 -1 z m 50 613 q 65 613 77 601 q 89 589 89 574 q 89 559 78 547 q 67 535 51 535 q 35 535 23 546 q 12 557 12 574 q 12 589 23 601 q 35 613 50 613 z"},"y":{"x_min":0,"x_max":456,"ha":456,"o":"m 344 427 q 327 403 320 378 q 312 353 312 326 q 312 275 344 202 q 374 137 404 74 q 437 -4 437 -60 q 437 -132 387 -169 q 348 -198 291 -198 q 260 -198 240 -189 q 241 -179 242 -163 q 243 -146 243 -141 q 243 -126 241 -109 q 239 -91 223 -56 q 221 -49 214 -39 q 230 -43 245 -45 q 260 -47 273 -47 q 310 -47 333 -27 q 344 -16 361 12 q 366 22 366 42 q 366 73 355 114 q 352 127 343 151 q 341 97 332 71 q 303 -10 221 -10 q 135 -10 101 73 q 77 133 77 253 q 77 305 59 348 q 40 392 16 412 l 57 439 q 74 409 83 360 q 93 311 93 274 q 93 218 127 180 q 161 142 219 142 q 249 142 275 153 q 315 171 315 205 q 315 232 306 273 q 283 374 283 434 z"},".":{"x_min":0,"x_max":187,"ha":187,"o":"m 84 145 q 87 146 90 146 q 93 146 94 146 q 122 146 143 123 q 163 100 163 71 q 163 44 149 24 q 135 4 109 0 q 105 -1 99 -1 q 72 -1 52 18 q 31 38 31 65 q 30 71 30 74 q 30 100 45 121 q 60 142 84 145 z"},"p":{"x_min":0,"x_max":426,"ha":426,"o":"m 410 158 q 410 69 361 29 q 320 -4 250 -4 q 239 -4 229 -4 q 219 -3 215 -3 q 213 12 213 20 q 209 44 205 62 q 201 81 185 115 q 180 126 170 144 q 196 139 221 135 q 273 135 309 169 q 348 206 348 267 q 348 318 309 366 q 265 420 204 420 q 178 420 162 409 q 146 399 146 378 q 146 361 165 354 q 176 351 196 351 q 197 342 198 333 q 198 324 203 310 q 204 304 212 291 q 213 290 215 285 q 191 273 170 273 q 140 273 122 294 q 105 316 105 335 q 105 378 132 406 q 160 433 205 433 q 301 433 362 321 q 410 233 410 158 z m 62 425 q 79 389 100 248 q 122 108 152 45 q 197 -52 287 -52 q 313 -52 337 -43 q 357 -34 369 -30 q 367 -49 366 -71 q 365 -92 365 -100 q 367 -124 382 -161 q 387 -172 396 -192 q 388 -195 371 -198 q 354 -201 341 -201 q 218 -201 152 -75 q 95 35 95 204 q 95 253 68 323 q 47 380 14 400 z"},"X":{"x_min":0,"x_max":764,"ha":764,"o":"m 576 673 q 583 662 587 648 q 591 633 591 617 q 591 601 587 587 q 584 572 576 561 q 540 592 517 607 q 493 622 471 619 q 467 622 467 626 q 467 630 474 639 q 481 648 481 655 q 481 660 477 665 q 472 677 462 683 q 452 689 439 689 q 421 689 404 681 q 356 638 335 562 q 322 513 322 454 q 322 395 413 315 q 503 235 576 235 q 608 235 625 239 q 641 242 677 256 q 679 229 680 213 q 684 168 693 140 q 701 113 723 74 q 730 61 743 39 q 719 19 690 11 q 669 5 636 5 q 550 5 486 77 q 441 127 392 236 q 329 375 314 399 q 314 266 300 201 q 282 107 222 45 q 201 22 169 11 q 137 0 94 0 q 98 13 100 21 q 105 47 105 74 q 105 118 77 186 q 68 208 48 245 q 60 242 88 236 q 117 230 137 230 q 161 230 184 239 q 236 265 271 331 q 301 388 301 431 q 301 475 250 551 q 188 642 117 642 q 74 642 55 634 q 33 621 18 613 q 29 667 40 722 q 106 722 152 697 q 199 672 238 620 q 252 600 281 539 q 290 519 307 481 q 332 604 345 637 q 378 717 449 738 q 462 740 467 740 q 500 740 533 717 q 557 699 576 673 z"},"Y":{"x_min":0,"x_max":710,"ha":710,"o":"m 79 724 q 97 673 135 666 q 174 659 199 646 q 243 623 267 535 q 287 462 307 389 q 336 316 399 316 q 449 316 475 359 q 495 391 495 434 q 495 462 490 498 q 478 576 478 603 q 478 653 488 684 q 501 726 529 726 q 524 708 522 698 q 515 665 515 651 q 515 604 540 548 q 557 510 641 380 q 666 342 680 296 q 694 251 694 203 q 694 145 673 98 q 651 51 603 20 q 579 4 552 -2 q 524 -9 493 -9 q 465 -9 409 -1 q 352 7 324 7 q 286 7 252 -4 q 249 29 248 48 q 240 105 226 149 q 217 186 198 219 q 193 230 182 244 q 244 226 287 220 q 330 214 378 214 q 508 214 560 265 q 593 298 593 351 q 593 380 567 443 q 544 494 522 545 q 509 571 504 603 q 502 613 501 629 q 498 615 498 596 q 498 577 507 503 q 511 466 511 447 q 511 376 477 335 q 442 295 387 295 q 349 295 325 302 q 301 309 274 325 q 223 354 201 415 q 178 476 178 563 q 178 624 149 642 q 146 644 92 657 q 57 665 39 678 q 14 696 14 724 z"},"c":{"x_min":0,"x_max":395,"ha":395,"o":"m 166 418 q 229 418 263 382 q 290 353 290 319 q 290 294 275 277 q 269 269 221 239 l 174 326 q 184 326 196 334 q 209 343 209 354 q 209 376 195 389 q 181 403 151 403 q 102 403 75 364 q 52 331 52 283 q 52 214 103 175 q 152 138 228 138 q 290 138 331 161 q 334 138 335 126 q 342 85 351 64 q 357 48 370 29 q 374 22 383 9 q 336 9 305 6 q 274 3 244 0 q 145 0 85 66 q 18 141 18 231 q 18 323 57 370 q 95 418 166 418 z"},"!":{"x_min":0,"x_max":275,"ha":275,"o":"m 64 668 q 110 668 144 601 q 172 545 172 497 q 172 483 146 397 q 134 356 134 326 q 134 278 139 252 q 143 225 160 209 q 119 239 115 333 q 110 427 109 435 q 91 501 15 529 q 28 544 34 553 q 56 583 60 601 q 62 606 63 620 q 65 634 65 648 q 65 656 65 663 q 65 665 64 668 z m 182 148 q 212 148 233 127 q 254 106 254 76 q 254 47 240 23 q 226 0 203 0 q 169 0 146 18 q 124 37 124 67 q 123 73 123 75 q 123 104 139 126 q 156 148 182 148 z"},"6":{"x_min":0,"x_max":509,"ha":509,"o":"m 384 499 q 355 499 325 488 q 294 478 270 460 q 270 495 257 522 q 244 548 214 563 q 198 567 192 567 q 156 567 118 535 q 91 511 75 484 q 53 445 53 396 q 53 362 64 326 q 75 290 94 255 q 100 276 103 289 q 116 326 134 347 q 157 373 189 384 q 222 396 261 396 q 274 396 287 394 q 301 393 323 389 q 378 370 421 326 q 467 279 473 224 q 477 199 477 181 q 477 76 384 20 q 366 11 343 6 q 319 2 295 2 q 222 2 170 37 q 100 88 61 165 q 23 241 23 333 q 23 343 24 353 q 24 363 28 394 q 40 453 66 495 q 98 546 147 568 q 178 582 218 582 q 282 582 328 550 q 342 541 371 511 q 376 507 384 499 z m 245 385 q 201 385 159 348 q 117 310 117 263 q 117 249 117 243 q 117 236 117 232 q 118 228 124 222 q 143 197 187 185 q 232 172 274 172 q 288 172 293 173 q 331 188 340 193 q 365 207 374 227 q 383 247 383 274 q 383 298 377 310 q 359 344 322 365 q 284 385 245 385 z"},"r":{"x_min":0,"x_max":340,"ha":340,"o":"m 86 361 q 106 361 129 383 q 149 406 170 430 q 178 413 191 400 q 205 387 224 387 q 246 387 262 404 q 266 410 274 422 q 275 418 275 410 q 275 382 248 350 q 221 318 187 318 q 161 318 138 335 q 126 343 113 352 q 100 352 93 349 q 86 347 86 339 q 86 270 111 214 q 143 144 196 144 q 218 144 228 147 q 238 150 274 165 q 274 145 275 124 q 276 103 281 80 q 285 57 292 34 q 295 26 300 12 q 277 -2 250 -2 q 214 -2 182 20 q 149 42 127 74 q 97 211 75 294 q 54 378 14 397 l 54 438 q 63 422 72 392 q 81 361 86 361 z"},"2":{"x_min":0,"x_max":545,"ha":545,"o":"m 372 498 q 380 482 385 463 q 390 444 390 425 q 390 399 380 378 q 363 340 299 300 q 245 266 192 233 q 139 193 139 146 q 155 157 165 162 q 195 178 211 178 q 218 179 234 180 q 249 180 263 181 q 284 181 325 178 q 365 176 384 176 q 415 176 437 180 q 459 184 483 196 q 483 135 489 96 q 494 58 516 25 q 486 11 452 4 q 419 -3 387 -3 q 361 -3 251 11 q 200 17 161 17 q 149 17 128 8 q 121 5 109 -2 q 100 24 100 55 q 100 91 111 128 q 121 164 141 199 q 158 228 206 273 q 281 341 281 422 q 282 436 282 443 q 282 460 276 478 q 271 495 254 522 q 237 543 214 552 q 191 561 158 564 q 110 558 75 530 q 39 501 25 456 q 25 426 34 404 q 43 381 67 365 q 74 361 82 361 q 89 361 96 364 q 100 366 112 372 q 126 385 126 403 q 126 421 112 441 q 122 446 127 448 q 146 457 156 465 l 190 491 q 202 479 208 459 q 214 439 214 420 q 214 397 205 382 q 179 342 133 337 q 118 335 112 335 q 91 335 75 344 q 68 348 54 360 q 35 374 24 398 q 13 422 13 444 q 13 471 25 491 q 53 537 98 558 q 143 578 198 578 q 235 578 269 570 q 303 562 331 543 q 360 523 372 498 z"},"9":{"x_min":0,"x_max":491,"ha":491,"o":"m 392 441 q 425 389 445 332 q 465 274 465 217 q 465 151 435 95 q 404 39 345 17 q 300 0 225 0 q 197 0 141 4 q 84 7 59 7 q 77 40 87 73 q 98 106 98 139 q 98 178 81 208 q 143 173 221 173 q 260 173 292 183 q 324 192 353 213 q 378 239 391 267 q 404 294 404 328 q 404 375 385 415 q 367 456 334 485 q 341 465 344 455 q 355 420 355 398 q 354 391 354 388 q 350 352 343 336 q 335 320 314 297 q 296 277 270 268 q 244 258 216 258 q 193 258 176 261 q 160 265 135 274 q 91 296 61 331 q 25 372 21 419 q 20 424 20 431 q 20 438 20 440 q 20 497 59 544 q 77 564 105 574 q 133 583 162 583 q 181 583 197 580 q 213 578 230 572 q 280 556 316 528 q 358 496 392 441 z m 81 535 q 69 521 69 492 q 69 479 71 465 q 74 452 78 438 q 100 390 146 353 q 192 316 239 316 q 269 316 292 327 q 321 342 333 369 q 335 378 336 393 q 337 408 337 409 q 337 441 322 471 q 308 500 274 534 q 237 571 170 571 q 142 571 119 563 q 96 554 81 535 z"}," ":{"x_min":0,"x_max":314,"ha":314,"o":""},"I":{"x_min":0,"x_max":510,"ha":510,"o":"m 223 621 q 228 604 231 594 q 243 561 262 530 q 274 509 335 405 q 382 326 395 289 q 424 301 444 341 q 461 376 461 411 q 461 476 405 519 q 388 533 371 546 q 388 546 413 529 q 474 486 474 409 q 474 355 439 309 q 428 294 404 274 q 404 266 409 232 q 414 198 414 186 q 414 105 359 50 q 308 0 243 0 q 217 0 167 6 q 117 13 98 13 q 79 13 68 9 q 57 126 49 160 q 39 204 14 241 q 40 232 70 227 q 99 222 130 222 q 160 222 186 228 q 212 234 230 247 q 167 288 146 310 q 99 361 99 428 q 99 471 127 522 q 155 573 212 622 q 208 639 206 648 q 198 686 198 705 q 198 728 205 741 q 213 754 231 754 q 247 754 252 738 q 257 722 257 697 q 257 677 247 657 q 235 639 223 621 z m 210 700 q 210 672 213 660 q 217 648 223 648 q 230 648 239 666 q 248 685 248 699 q 248 720 243 732 q 238 744 230 744 q 222 744 216 733 q 210 721 210 700 z m 303 351 q 303 390 266 483 q 240 546 214 611 q 170 556 152 514 q 134 472 134 427 q 134 356 178 306 q 215 265 254 258 q 266 257 285 289 q 303 321 303 351 z"},"H":{"x_min":0,"x_max":787,"ha":787,"o":"m 559 679 q 559 638 568 610 q 570 601 577 590 q 500 590 451 544 q 402 498 402 413 q 430 413 461 412 q 491 412 510 412 q 516 412 522 412 q 526 411 526 404 q 526 397 511 397 q 480 397 457 397 q 435 397 409 396 q 415 357 448 318 q 474 287 516 261 q 534 252 561 248 q 587 243 613 243 q 637 243 659 245 q 682 248 713 252 q 711 243 710 225 q 709 206 709 204 q 709 157 726 102 q 751 38 761 6 q 752 4 748 3 q 743 2 732 2 q 713 2 691 8 q 669 13 647 22 q 544 66 473 180 q 416 270 383 396 l 316 397 q 343 324 354 291 q 371 236 371 197 q 371 140 335 90 q 306 40 257 18 q 214 -2 154 -2 q 113 -2 57 7 q 59 22 60 39 q 61 56 61 76 q 61 99 58 114 q 49 154 30 203 q 24 220 12 247 q 69 233 117 233 q 183 233 219 262 q 237 276 254 309 q 261 338 264 352 q 270 378 270 396 l 175 396 q 169 396 163 396 q 160 397 160 404 q 160 411 165 411 q 170 410 175 410 q 183 410 187 410 q 196 410 200 410 q 207 410 211 410 q 218 410 221 410 q 236 410 247 410 q 257 410 265 411 q 259 455 253 487 q 247 519 235 570 q 231 583 229 607 q 223 657 220 670 q 212 650 204 630 q 198 601 196 586 q 190 557 184 542 q 166 498 131 470 q 96 442 57 442 q 57 447 58 456 q 59 465 59 471 q 59 496 58 514 q 57 533 55 543 q 70 542 86 541 q 115 541 143 564 q 171 587 184 622 q 197 657 210 692 q 227 732 243 732 q 249 732 249 726 q 248 717 245 702 q 242 687 242 665 q 242 604 260 536 q 278 469 309 411 l 380 411 q 380 544 419 628 q 466 732 565 732 q 563 726 563 722 q 559 696 559 679 z"},"4":{"x_min":0,"x_max":567,"ha":567,"o":"m 278 584 q 278 562 207 431 q 131 290 61 191 q 86 201 100 206 q 146 222 174 228 q 203 233 234 235 q 265 236 292 237 q 292 291 288 338 q 283 386 272 422 l 294 468 q 304 436 310 415 q 348 299 373 240 q 377 234 390 234 q 404 234 430 243 q 446 248 461 259 q 477 270 487 282 q 506 206 526 132 q 513 122 475 118 q 437 114 431 112 q 435 89 465 46 q 495 4 495 -2 q 470 0 456 0 q 398 3 384 3 q 348 3 300 0 q 291 0 277 -2 q 286 39 289 66 q 292 93 292 128 q 292 143 228 157 q 164 171 132 171 q 95 171 61 164 q 26 157 21 152 q 94 280 122 347 q 155 430 155 505 q 155 538 150 576 q 156 573 165 572 q 173 571 186 571 q 220 571 260 579 q 267 580 278 584 z"},"D":{"x_min":0,"x_max":791,"ha":791,"o":"m 683 491 q 717 446 736 376 q 756 306 756 239 q 756 168 735 127 q 695 55 620 24 q 560 0 470 0 q 444 0 377 11 q 343 16 325 16 q 307 16 283 12 q 260 7 251 5 q 254 22 256 40 q 258 59 258 77 q 258 117 218 175 q 204 194 177 224 q 201 237 252 245 q 340 259 341 257 q 298 450 256 645 q 254 648 254 649 q 252 655 252 660 q 252 666 258 669 q 267 672 272 656 q 272 653 274 648 l 372 255 q 411 244 432 239 q 501 223 526 223 q 562 223 591 246 q 614 265 622 288 q 630 312 630 351 q 630 479 544 583 q 443 706 277 706 q 199 706 139 669 q 80 631 69 582 q 65 558 65 544 q 65 503 90 486 q 107 474 131 474 q 149 474 162 482 q 177 491 191 501 q 195 487 197 479 q 205 454 212 440 q 218 427 234 401 q 239 394 248 380 q 225 371 214 368 q 195 361 173 361 q 130 361 101 377 q 72 394 55 422 q 34 457 34 512 q 34 553 47 588 q 59 622 88 647 q 126 683 176 700 q 226 717 283 717 q 305 717 330 714 q 356 711 380 707 q 465 684 547 624 q 624 568 683 491 z"},"0":{"x_min":0,"x_max":536,"ha":536,"o":"m 198 583 q 325 583 423 454 q 514 335 514 207 q 514 118 465 62 q 411 0 316 0 q 181 0 100 104 q 23 201 23 342 q 23 439 65 506 q 114 583 198 583 z m 304 196 q 361 196 401 236 q 441 276 441 334 q 441 404 370 487 q 291 578 199 578 q 138 578 103 541 q 68 503 68 439 q 68 341 140 268 q 212 196 304 196 z"},"F":{"x_min":0,"x_max":664,"ha":664,"o":"m 562 712 l 571 652 q 551 648 527 648 q 483 648 435 674 q 329 731 278 731 q 162 731 98 661 q 44 603 44 526 q 44 456 66 408 q 92 353 151 326 q 157 325 170 325 q 201 325 222 343 q 247 364 247 404 q 247 450 213 485 q 210 488 158 527 q 171 535 178 540 q 199 553 211 565 q 222 577 237 596 q 239 600 243 606 q 296 559 310 541 q 344 499 344 456 q 344 397 317 359 q 278 302 193 302 q 120 302 69 370 q 23 430 23 498 q 23 568 50 620 q 76 672 133 708 q 167 729 204 739 q 242 750 282 750 q 324 750 365 740 q 405 731 456 712 q 465 708 482 705 q 498 702 510 702 q 543 702 562 712 z m 449 447 q 453 441 479 441 q 497 441 517 445 q 518 461 520 470 q 526 497 540 511 q 544 509 550 507 q 561 479 574 451 q 582 434 601 420 q 609 413 630 402 q 626 393 625 387 q 620 369 619 362 q 618 355 618 347 q 618 339 618 335 q 618 322 618 315 q 618 309 619 305 q 572 312 546 354 q 525 404 518 418 q 517 421 500 421 q 491 421 482 420 q 473 420 465 419 q 507 335 521 296 q 541 243 541 197 q 541 83 445 32 q 383 0 298 0 q 269 0 243 4 q 184 12 177 12 q 167 12 155 11 q 143 10 128 7 q 129 14 131 22 q 136 48 136 68 q 136 80 136 91 q 134 103 133 109 q 126 151 106 211 q 100 230 85 265 q 139 241 142 240 q 179 226 232 226 q 332 226 376 291 q 407 336 407 407 q 407 424 387 425 q 368 426 368 433 q 368 445 386 445 q 404 445 403 451 q 400 472 372 564 q 361 600 361 626 q 361 666 370 666 q 381 666 381 621 q 381 589 390 563 q 404 524 449 447 z"},"k":{"x_min":0,"x_max":538,"ha":538,"o":"m 77 705 q 77 664 78 643 q 80 622 88 586 q 102 516 136 395 q 153 335 170 276 q 174 265 184 265 q 189 265 206 270 q 223 274 232 274 q 256 274 274 271 q 291 269 314 260 q 323 257 340 283 q 358 309 358 331 q 358 353 348 369 q 338 384 325 384 q 316 384 305 375 q 294 366 294 359 q 284 361 279 362 q 258 367 250 367 q 241 367 231 366 q 221 365 211 363 q 211 396 236 420 q 262 445 292 445 q 336 445 361 409 q 382 379 382 344 q 382 312 357 279 q 349 268 332 253 q 375 217 399 198 q 444 162 514 162 q 512 141 511 127 q 509 113 509 97 q 509 72 516 35 q 517 22 524 1 q 509 -2 496 -2 q 457 -2 426 27 q 382 67 329 182 q 309 227 297 227 q 291 227 257 216 q 240 211 230 211 q 225 211 216 212 q 206 213 204 213 q 195 213 195 204 q 195 204 196 196 q 206 161 225 129 q 244 97 319 0 q 299 2 274 3 q 250 4 229 4 q 194 4 171 3 q 149 2 136 0 q 152 55 156 84 q 160 114 160 160 q 160 195 142 287 q 125 380 100 476 q 74 580 52 624 q 44 641 31 652 q 24 658 10 665 z m 281 243 q 281 249 267 255 q 253 261 229 261 q 211 261 200 254 q 189 247 193 240 q 194 234 207 230 q 220 227 230 227 q 243 227 260 232 q 277 237 281 243 z"},"u":{"x_min":0,"x_max":491,"ha":491,"o":"m 42 437 q 56 413 72 307 q 96 151 217 151 q 277 151 303 182 q 323 206 323 250 q 323 265 322 274 q 320 283 317 305 q 317 324 299 360 q 281 396 262 413 l 296 441 q 309 415 322 337 q 334 259 353 224 q 385 167 457 151 q 455 138 455 131 q 452 101 452 94 q 452 73 459 38 q 461 26 466 6 q 405 21 366 86 q 353 108 339 150 q 331 100 321 74 q 291 -1 230 -1 q 140 -1 102 83 q 84 125 63 259 q 45 371 12 405 z"},"U":{"x_min":0,"x_max":863,"ha":863,"o":"m 457 732 q 465 711 503 540 q 535 400 570 332 q 622 234 701 234 q 724 234 743 240 q 763 246 790 260 q 791 227 792 207 q 796 150 808 111 q 816 79 840 31 q 844 23 852 10 q 834 2 810 2 q 774 2 738 15 q 701 29 680 51 q 635 95 588 198 q 573 232 551 294 q 548 256 545 218 q 536 130 506 77 q 462 0 378 0 q 291 0 234 75 q 177 151 177 248 q 177 299 178 336 q 178 373 179 405 q 179 479 174 526 q 169 573 152 606 q 129 651 56 683 q 22 698 13 719 l 65 720 l 116 725 q 116 701 135 668 q 167 611 176 589 q 186 568 200 510 q 212 465 216 440 q 235 356 263 309 q 309 231 385 231 q 445 231 472 257 q 508 290 508 381 q 508 459 483 552 q 454 666 400 732 z"},"o":{"x_min":0,"x_max":404,"ha":404,"o":"m 282 405 q 337 360 365 288 q 388 228 388 167 q 388 126 367 83 q 343 36 303 14 q 288 7 270 3 q 252 -1 232 -1 q 196 -1 159 12 q 123 25 100 44 q 59 79 39 130 q 18 180 18 238 q 18 262 22 285 q 25 308 31 334 q 41 370 70 400 q 99 430 133 441 l 150 435 q 157 435 174 437 q 190 439 196 439 q 217 439 237 432 q 257 425 282 405 z m 201 425 q 159 425 159 400 q 159 387 169 383 q 178 379 196 379 q 196 370 198 361 q 200 351 204 341 q 208 332 216 322 q 217 320 222 317 q 217 309 205 300 q 193 292 180 292 q 151 292 131 306 q 106 323 106 358 q 106 373 110 389 q 118 417 135 429 q 102 412 86 391 q 65 362 65 318 q 65 250 117 195 q 170 140 231 140 q 279 140 313 164 q 354 194 354 247 q 354 291 312 352 q 262 425 201 425 z"},"N":{"x_min":0,"x_max":690,"ha":690,"o":"m 291 732 q 291 683 339 603 q 374 544 440 456 q 516 354 536 321 q 577 254 615 168 q 627 141 644 100 q 644 116 643 126 q 637 190 607 250 q 546 375 526 434 q 505 492 505 526 q 505 578 533 616 q 561 654 594 654 q 594 647 594 630 q 594 613 596 597 q 597 580 611 545 q 615 534 625 513 q 603 490 599 483 q 585 461 585 427 q 585 387 606 323 q 628 260 649 199 q 672 123 672 54 q 673 48 673 43 q 673 30 668 22 q 661 9 646 9 q 640 30 635 55 q 629 79 620 99 q 596 149 551 206 q 420 370 417 375 q 378 439 355 481 q 324 540 306 588 q 284 648 275 709 q 273 709 266 710 q 260 711 255 711 q 240 711 232 708 q 224 704 224 693 q 224 642 250 563 q 271 500 293 458 q 320 406 336 371 q 361 316 374 275 q 390 222 390 178 q 390 144 382 116 q 373 88 353 64 q 325 27 287 13 q 257 1 215 1 q 198 1 165 4 q 132 6 115 6 q 96 6 83 4 q 71 2 58 0 q 63 29 63 49 q 63 88 53 126 q 51 134 10 242 q 41 234 68 229 q 95 224 119 224 q 170 224 215 248 q 245 277 261 311 q 276 345 276 384 q 242 544 208 706 q 200 709 176 711 q 152 713 145 716 q 142 718 143 723 q 146 730 146 735 z"},"G":{"x_min":0,"x_max":588,"ha":588,"o":"m 436 559 q 436 509 403 466 q 362 414 293 414 q 253 414 219 440 q 174 474 174 536 q 174 573 191 605 q 208 638 237 648 q 239 639 240 634 q 245 619 250 608 q 256 597 273 581 q 278 576 289 567 q 275 553 266 540 q 255 522 255 508 q 255 479 270 462 q 284 445 311 438 q 345 438 367 458 q 398 489 398 558 q 398 625 363 673 q 320 730 240 730 q 165 730 119 670 q 81 620 81 561 q 81 479 129 405 q 187 318 276 318 q 368 318 421 380 q 464 431 464 493 l 480 493 q 480 441 519 337 q 559 233 559 182 q 559 149 548 119 q 538 89 512 59 q 475 25 425 11 q 383 -1 326 -1 q 298 -1 241 3 q 185 6 156 6 q 128 6 101 4 q 101 57 90 110 q 78 163 37 260 q 106 241 148 232 q 217 218 270 218 q 321 218 363 230 q 404 241 439 269 q 461 287 474 307 q 488 327 488 350 q 488 370 476 398 q 470 410 464 422 q 447 375 402 343 q 346 302 269 302 q 166 302 93 374 q 20 445 20 538 q 20 630 98 691 q 166 745 243 745 q 309 745 367 700 q 436 645 436 559 z"},"q":{"x_min":0,"x_max":542,"ha":542,"o":"m 269 339 q 269 301 244 282 q 222 265 190 265 q 183 265 176 266 q 169 267 165 268 q 168 277 170 287 q 172 297 172 306 q 173 317 174 329 q 174 340 174 352 q 196 352 206 359 q 217 367 217 378 q 217 393 202 407 q 187 421 169 421 q 127 421 93 392 q 48 353 48 281 q 48 204 95 168 q 133 138 193 138 q 244 138 287 170 q 291 149 292 136 q 300 99 309 77 q 314 64 326 42 q 330 35 338 23 q 278 0 226 0 q 122 0 68 82 q 25 147 25 242 q 25 305 52 358 q 91 435 170 435 q 206 435 236 411 q 269 383 269 339 z m 328 437 q 328 387 327 362 q 326 336 326 314 q 326 292 329 271 q 332 249 344 196 q 377 57 430 16 q 455 -4 507 -4 q 507 -30 507 -60 q 508 -91 514 -120 q 517 -133 526 -164 q 527 -169 531 -177 q 517 -182 505 -182 q 474 -182 445 -148 q 415 -106 404 -91 q 373 -30 355 58 q 341 137 326 216 q 306 322 270 408 z"},"d":{"x_min":0,"x_max":462,"ha":462,"o":"m 224 679 q 239 625 267 509 q 295 394 310 344 q 336 260 371 201 q 385 178 410 160 q 436 143 444 138 q 435 114 431 95 q 427 75 427 52 q 427 24 436 0 q 375 25 343 81 q 318 124 306 199 q 297 264 288 328 q 265 474 257 506 q 229 608 173 642 z m 267 335 q 267 297 238 277 q 209 257 165 257 q 167 262 168 269 q 170 275 170 278 q 170 296 168 315 q 166 334 164 351 q 179 351 190 354 q 200 357 206 367 q 213 381 197 395 q 180 409 161 409 q 117 409 88 380 q 54 346 54 278 q 54 208 97 170 q 135 135 196 135 q 228 135 247 145 q 266 154 283 162 q 285 152 286 146 q 296 109 308 86 q 317 70 333 50 q 338 43 350 31 q 300 14 269 7 q 238 0 218 0 q 138 0 80 65 q 19 133 19 232 q 19 316 59 369 q 100 422 169 422 q 207 422 234 403 q 267 379 267 335 z"},"1":{"x_min":0,"x_max":332,"ha":332,"o":"m 161 494 q 181 439 200 322 q 220 205 235 155 q 264 62 320 0 q 306 1 297 1 q 230 4 196 4 q 173 4 153 4 q 134 3 120 0 q 135 61 152 166 q 170 271 170 326 q 170 396 152 471 q 135 547 123 547 q 121 518 120 502 q 116 455 107 438 q 91 401 75 378 q 54 345 37 345 q 36 352 36 360 q 40 379 40 392 q 40 413 34 436 q 32 444 27 457 q 42 457 59 473 q 73 485 90 513 q 103 534 110 568 q 111 573 114 583 q 122 579 129 566 q 145 538 161 494 z"},"5":{"x_min":0,"x_max":547,"ha":547,"o":"m 381 505 q 394 488 399 480 q 409 465 412 451 q 391 434 367 427 q 343 420 317 420 q 291 420 238 430 q 184 441 157 441 q 137 441 122 438 q 108 435 90 426 l 83 420 q 83 401 90 370 q 98 340 108 304 q 175 352 268 352 q 313 352 358 339 q 403 325 441 296 q 480 266 502 225 q 517 194 517 159 q 517 131 508 99 q 485 50 442 25 q 398 0 345 0 q 255 0 178 22 q 100 45 52 89 q 64 100 70 107 q 84 122 95 135 q 109 152 127 178 q 137 195 155 225 q 192 201 233 186 q 274 170 315 170 q 340 170 359 175 q 378 180 399 194 q 416 208 416 230 q 416 244 411 259 q 403 279 399 287 q 375 316 341 328 q 307 341 265 341 q 251 341 235 339 q 218 338 199 335 q 150 312 138 305 q 120 293 100 274 l 77 382 q 58 476 14 547 q 42 564 76 571 q 109 578 150 578 q 183 578 210 576 q 238 574 277 572 q 299 572 316 576 q 334 579 350 583 q 357 561 365 539 q 373 517 381 505 z"}}}
